HIERARCHY
ROOT Hips
{
  OFFSET 51.1162 95.6751 9.19283
  CHANNELS 6 Xposition Yposition Zposition Zrotation Xrotation Yrotation
  JOINT spine
  {
    OFFSET 0 7.96568 0.458067
    CHANNELS 3 Zrotation Xrotation Yrotation
    JOINT spine1
    {
      OFFSET 0 10.2431 0
      CHANNELS 3 Zrotation Xrotation Yrotation
      JOINT spine2
      {
        OFFSET 0 9.81475 0
        CHANNELS 3 Zrotation Xrotation Yrotation
        JOINT Neck
        {
          OFFSET 0 25.1986 1.20138
          CHANNELS 3 Zrotation Xrotation Yrotation
          JOINT Head
          {
            OFFSET 0 7.61315 0
            CHANNELS 3 Zrotation Xrotation Yrotation
            End Site
            {
              OFFSET 0 18.4281 -6.07733
            }
          }
        }
        JOINT RightShoulder
        {
          OFFSET -4.1327 10.5992 -0.575451
          CHANNELS 3 Zrotation Xrotation Yrotation
          JOINT RightArm
          {
            OFFSET 0 13.9018 0
            CHANNELS 3 Zrotation Xrotation Yrotation
            JOINT RightArmRoll
            {
              OFFSET 0 7.01788 0
              CHANNELS 3 Zrotation Xrotation Yrotation
              JOINT RightForeArm
              {
                OFFSET 0 20.4406 0
                CHANNELS 3 Zrotation Xrotation Yrotation
                JOINT RightForeArmRoll
                {
                  OFFSET 0 7.87515 0
                  CHANNELS 3 Zrotation Xrotation Yrotation
                  JOINT RightHand
                  {
                    OFFSET 0 15.8037 0
                    CHANNELS 3 Zrotation Xrotation Yrotation
                    End Site
                    {
                      OFFSET 0 0 0
                    }
                  }
                }
              }
            }
          }
        }
        JOINT LeftShoulder
        {
          OFFSET 4.1327 10.5992 -0.575451
          CHANNELS 3 Zrotation Xrotation Yrotation
          JOINT LeftArm
          {
            OFFSET 0 13.9018 0
            CHANNELS 3 Zrotation Xrotation Yrotation
            JOINT LeftArmRoll
            {
              OFFSET 0 7.01788 0
              CHANNELS 3 Zrotation Xrotation Yrotation
              JOINT LeftForeArm
              {
                OFFSET 0 20.4406 0
                CHANNELS 3 Zrotation Xrotation Yrotation
                JOINT LeftForeArmRoll
                {
                  OFFSET 0 7.87515 0
                  CHANNELS 3 Zrotation Xrotation Yrotation
                  JOINT LeftHand
                  {
                    OFFSET 0 15.8037 0
                    CHANNELS 3 Zrotation Xrotation Yrotation
                    End Site
                    {
                      OFFSET 0 0 0
                    }
                  }
                }
              }
            }
          }
        }
      }
    }
  }
  JOINT RightUpLeg
  {
    OFFSET -7.06047 -1.2947 -1.08609
    CHANNELS 3 Zrotation Xrotation Yrotation
    JOINT RightUpLegRoll
    {
      OFFSET 0 18.5308 0
      CHANNELS 3 Zrotation Xrotation Yrotation
      JOINT RightLeg
      {
        OFFSET 0 -22.9476 0
        CHANNELS 3 Zrotation Xrotation Yrotation
        JOINT RightLegRoll
        {
          OFFSET 0 23.0226 0
          CHANNELS 3 Zrotation Xrotation Yrotation
          JOINT RightFoot
          {
            OFFSET 0 19.1625 0
            CHANNELS 3 Zrotation Xrotation Yrotation
            JOINT RightToeBase
            {
              OFFSET 0 16.0188 0
              CHANNELS 3 Zrotation Xrotation Yrotation
              End Site
              {
                OFFSET 0.00678979 7.75781 -0.894206
              }
            }
          }
        }
      }
    }
  }
  JOINT LeftUpLeg
  {
    OFFSET 7.06047 -1.2947 -1.08609
    CHANNELS 3 Zrotation Xrotation Yrotation
    JOINT LeftUpLegRoll
    {
      OFFSET 0 18.5309 0
      CHANNELS 3 Zrotation Xrotation Yrotation
      JOINT LeftLeg
      {
        OFFSET 0 22.9475 0
        CHANNELS 3 Zrotation Xrotation Yrotation
        JOINT LeftLegRoll
        {
          OFFSET 0 23.2355 0
          CHANNELS 3 Zrotation Xrotation Yrotation
          JOINT LeftFoot
          {
            OFFSET 0 18.9496 0
            CHANNELS 3 Zrotation Xrotation Yrotation
            JOINT LeftToeBase
            {
              OFFSET 0 16.0188 0
              CHANNELS 3 Zrotation Xrotation Yrotation
              End Site
              {
                OFFSET -0.0304289 7.75782 -0.894207
              }
            }
          }
        }
      }
    }
  }
}
MOTION
Frames: 9
Frame Time: 0.00208333
51.4807 95.8338 8.85811 -0.748327 -4.29783 2.78499 0.34333 -2.4761 0.212344 0.673081 -0.948318 0.388411 0.668464 0.696674 0.377176 -7.69116 33.6969 0.867961 8.75714 -7.85315 -1.00474 52.9563 2.45448 2.4129 131.192 55.3424 -43.9618 8.15381e-007 1.44248e-006 3.45921e-007 -148.447 84.1341 143.148 -1.21243e-005 6.17024e-007 -3.00971 8.0301 -4.9514 0.697649 -60.0661 -1.08186 0.818401 -129.692 62.5649 58.6623 -1.59028e-015 -1.11319e-014 -5.56597e-015 133.879 88.4328 -127.662 4.44045e-006 1.70644e-006 3.00481 -8.03026 -4.95136 -0.697643 177.553 -5.23833 -3.05981 180 7.01514e-015 178.787 178.18 4.1541 179.567 1.13523e-006 -4.47681e-006 0.0539766 -19.1615 68.3502 19.8661 8.13649 25.2327 -3.48774 -172.507 -2.28436 -0.473243 4.54188e-006 -4.6773e-006 -1.13957 -1.92663 -5.76591 0.159772 -3.98827e-006 -1.60974e-006 -0.0128473 17.8471 68.2326 -19.7169 -8.13649 25.2327 3.48774 
51.4744 95.8278 8.85667 -0.746354 -4.30123 2.78194 0.343329 -2.4748 0.211283 0.672747 -0.945716 0.38614 0.668161 0.699276 0.374911 -7.69318 33.6896 0.879946 8.73048 -7.77086 -1.0045 52.9943 2.48311 2.42629 131.11 55.3362 -43.8681 8.15381e-007 1.44248e-006 3.4592e-007 -148.473 84.1285 143.177 -1.21243e-005 6.17024e-007 -3.00971 8.0301 -4.9514 0.697649 -60.0775 -1.08247 0.819998 -129.636 62.6068 58.6157 1.76556e-031 3.18055e-015 -3.18055e-015 133.358 88.4594 -127.155 4.44045e-006 1.70644e-006 3.00481 -8.03026 -4.95136 -0.697643 177.553 -5.24455 -3.06222 180 7.01514e-015 178.787 178.184 4.14725 179.566 1.13523e-006 -4.47681e-006 0.0539429 -19.1617 68.3505 19.8662 8.13649 25.2327 -3.48774 -172.507 -2.29475 -0.472825 4.54188e-006 -4.6773e-006 -1.13956 -1.92723 -5.75463 0.160028 -3.98827e-006 -1.60974e-006 -0.0128188 17.843 68.231 -19.7156 -8.13649 25.2327 3.48774 
51.4733 95.8401 8.85404 -0.744544 -4.30423 2.77835 0.343332 -2.47346 0.210334 0.672691 -0.943056 0.38411 0.668132 0.701936 0.372883 -7.69815 33.6818 0.892993 8.70841 -7.6936 -1.00323 53.0282 2.5089 2.43836 131.027 55.3317 -43.7756 8.15381e-007 1.44248e-006 3.45921e-007 -148.499 84.1239 143.206 -1.21243e-005 6.17024e-007 -3.00971 8.0301 -4.9514 0.697649 -60.089 -1.08599 0.82333 -129.571 62.6539 58.5721 5.40704e-031 1.11319e-014 -2.78299e-015 132.855 88.4851 -126.663 4.44045e-006 1.70644e-006 3.00481 -8.03026 -4.95136 -0.697643 177.553 -5.24912 -3.0642 180 7.01514e-015 178.787 178.187 4.14185 179.566 1.13523e-006 -4.47681e-006 0.05391 -19.1621 68.3509 19.8665 8.13649 25.2327 -3.48774 -172.507 -2.30327 -0.472289 4.54188e-006 -4.6773e-006 -1.13953 -1.92764 -5.74545 0.160266 -3.98827e-006 -1.60974e-006 -0.0127906 17.8393 68.2298 -19.7145 -8.13649 25.2327 3.48774 
51.4845 95.8356 8.85539 -0.742938 -4.30662 2.77422 0.343341 -2.47215 0.209503 0.672949 -0.940433 0.382341 0.668412 0.70456 0.371109 -7.70651 33.6738 0.907286 8.69151 -7.62288 -1.00075 53.0573 2.53121 2.44883 130.942 55.3294 -43.6848 8.15381e-007 1.44248e-006 3.4592e-007 -148.526 84.1202 143.234 -1.21243e-005 6.17024e-007 -3.00971 8.0301 -4.9514 0.697649 -60.0999 -1.09287 0.828596 -129.497 62.7068 58.5319 -3.18055e-015 0 -3.97569e-016 132.376 88.5097 -126.193 4.44045e-006 1.70644e-006 3.00481 -8.03026 -4.95136 -0.697643 177.552 -5.25167 -3.06568 180 7.01514e-015 178.787 178.189 4.1381 179.566 1.13523e-006 -4.47681e-006 0.0538781 -19.1627 68.3516 19.867 8.13649 25.2327 -3.48774 -172.508 -2.3095 -0.471625 4.54188e-006 -4.6773e-006 -1.13947 -1.92784 -5.73867 0.160482 -3.98827e-006 -1.60974e-006 -0.0127626 17.8361 68.2291 -19.7139 -8.13649 25.2327 3.48774 
51.4813 95.8249 8.85231 -0.741553 -4.309 2.76928 0.343342 -2.47067 0.208804 0.673572 -0.937479 0.380819 0.669054 0.707515 0.369576 -7.71865 33.6634 0.922973 8.68033 -7.5545 -0.997167 53.0831 2.55167 2.45854 130.856 55.3286 -43.5959 8.15381e-007 1.44248e-006 3.4592e-007 -148.552 84.1181 143.261 -1.21243e-005 6.17024e-007 -3.00971 8.0301 -4.9514 0.697649 -60.1134 -1.10295 0.836048 -129.418 62.7666 58.4993 -4.77083e-015 0 2.38542e-015 131.89 88.5346 -125.715 4.44045e-006 1.70644e-006 3.00481 -8.03026 -4.95136 -0.697643 177.552 -5.2526 -3.06662 180 7.01514e-015 178.787 178.191 4.13623 179.566 1.13523e-006 -4.47681e-006 0.053847 -19.1635 68.3526 19.8678 8.13649 25.2327 -3.48774 -172.508 -2.31415 -0.470847 4.54188e-006 -4.6773e-006 -1.13939 -1.92777 -5.73416 0.160689 -3.98828e-006 -1.60974e-006 -0.0127348 17.8333 68.2288 -19.7137 -8.13649 25.2327 3.48774 
51.4631 95.8271 8.84573 -0.740358 -4.31208 2.76334 0.343327 -2.46884 0.208237 0.67456 -0.933818 0.379511 0.670057 0.711176 0.36825 -7.7344 33.6481 0.939947 8.67466 -7.48368 -0.992803 53.1079 2.57218 2.46844 130.769 55.3287 -43.5088 8.15381e-007 1.44248e-006 3.45921e-007 -148.578 84.1176 143.289 -1.21243e-005 6.17024e-007 -3.0097 8.0301 -4.9514 0.697649 -60.1323 -1.11564 0.84564 -129.337 62.8339 58.4764 3.18055e-015 6.36111e-015 1.19271e-015 131.363 88.5609 -125.195 4.44045e-006 1.70644e-006 3.00481 -8.03026 -4.95136 -0.697643 177.551 -5.25263 -3.06702 180 7.01514e-015 178.787 178.192 4.13617 179.565 1.13523e-006 -4.47681e-006 0.0538168 -19.1646 68.3539 19.8689 8.13649 25.2327 -3.48774 -172.509 -2.31828 -0.46998 4.54188e-006 -4.6773e-006 -1.13932 -1.92742 -5.73145 0.160904 -3.98827e-006 -1.60974e-006 -0.0127072 17.8304 68.2286 -19.7136 -8.13649 25.2327 3.48774 
51.4657 95.824 8.84529 -0.739318 -4.31575 2.75649 0.343297 -2.46669 0.207788 0.675865 -0.929527 0.378409 0.671373 0.715467 0.367123 -7.75327 33.6286 0.95801 8.67382 -7.411 -0.987751 53.1315 2.59255 2.47839 130.682 55.3296 -43.423 8.15381e-007 1.44248e-006 3.4592e-007 -148.605 84.1187 143.317 -1.21243e-005 6.17024e-007 -3.0097 8.0301 -4.9514 0.697649 -60.1559 -1.13068 0.857126 -129.255 62.9077 58.4612 -3.18055e-015 3.18055e-015 -1.19271e-015 130.8 88.5883 -124.639 4.44045e-006 1.70644e-006 3.00481 -8.03026 -4.95136 -0.697643 177.55 -5.25186 -3.06693 180 7.01514e-015 178.788 178.193 4.13773 179.566 1.13523e-006 -4.47681e-006 0.0537875 -19.1659 68.3554 19.8702 8.13649 25.2327 -3.48774 -172.51 -2.3219 -0.469026 4.54188e-006 -4.6773e-006 -1.13924 -1.92682 -5.7304 0.161124 -3.98827e-006 -1.60974e-006 -0.0126799 17.8276 68.2287 -19.7136 -8.13649 25.2327 3.48774 
51.4705 95.8232 8.84322 -0.738395 -4.31993 2.74884 0.343258 -2.46427 0.207447 0.67744 -0.924683 0.377502 0.672956 0.72031 0.366187 -7.77478 33.6055 0.976964 8.67718 -7.33701 -0.982105 53.1541 2.61258 2.48828 130.593 55.3315 -43.3383 8.15381e-007 1.44248e-006 3.4592e-007 -148.632 84.1211 143.346 -1.21243e-005 6.17024e-007 -3.0097 8.0301 -4.9514 0.697649 -60.1831 -1.14782 0.870259 -129.169 62.9872 58.4515 -6.36111e-015 1.27222e-014 -9.14409e-015 130.209 88.6163 -124.053 4.44045e-006 1.70644e-006 3.00481 -8.03026 -4.95136 -0.697643 177.549 -5.25041 -3.0664 180 7.01514e-015 178.788 178.193 4.14061 179.566 1.13523e-006 -4.47681e-006 0.0537591 -19.1674 68.3571 19.8717 8.13649 25.2327 -3.48774 -172.51 -2.32503 -0.467988 4.54188e-006 -4.6773e-006 -1.13916 -1.92601 -5.73083 0.161347 -3.98827e-006 -1.60974e-006 -0.0126528 17.8248 68.2289 -19.7139 -8.13649 25.2327 3.48774 
51.4646 95.8354 8.84075 -0.737555 -4.32453 2.74051 0.343211 -2.46161 0.207203 0.679239 -0.919364 0.376783 0.67476 0.725629 0.365433 -7.79845 33.5794 0.996612 8.68407 -7.2623 -0.975959 53.1757 2.63209 2.49796 130.504 55.3344 -43.254 8.15381e-007 1.44248e-006 3.4592e-007 -148.66 84.1245 143.375 -1.21243e-005 6.17024e-007 -3.0097 8.0301 -4.9514 0.697649 -60.2133 -1.16678 0.884792 -129.08 63.0714 58.4455 -1.59028e-015 -7.95139e-015 -3.97569e-016 129.595 88.6445 -123.444 4.44045e-006 1.70644e-006 3.00481 -8.03026 -4.95136 -0.697643 177.548 -5.24838 -3.06549 180 7.01514e-015 178.788 178.192 4.1446 179.566 1.13523e-006 -4.47681e-006 0.0537318 -19.1689 68.3589 19.8732 8.13649 25.2327 -3.48774 -172.511 -2.32769 -0.466868 4.54188e-006 -4.6773e-006 -1.13909 -1.92503 -5.73259 0.161571 -3.98827e-006 -1.60974e-006 -0.012626 17.8222 68.2293 -19.7142 -8.13649 25.2327 3.48774 
